<?xml version="1.0" encoding="utf-8"?>
<!-- Generator: Adobe Illustrator 24.2.1, SVG Export Plug-In . SVG Version: 6.00 Build 0)  -->
<svg version="1.1" id="图层_1" xmlns="http://www.w3.org/2000/svg" xmlns:xlink="http://www.w3.org/1999/xlink" x="0px" y="0px"
	 viewBox="0 0 500 500" style="enable-background:new 0 0 500 500;" xml:space="preserve">
<style type="text/css">
	.st0{fill:#FCD757;}
	.st1{fill:#008755;}
</style>
<path class="st0" d="M381.2,231c-6.3-4.1-10.5-11.5-5.4-19.5c4.5-7,13.9-7.8,20-1.8c10.2,10.1,20.3,20.3,30.5,30.4
	c1.6,1.6,3.3,3.2,4.8,4.9c4.7,5.1,4.9,12.7,0,17.6c-11.9,12.1-23.8,24-35.9,35.9c-5,4.9-12.9,4.5-17.8-0.4
	c-4.9-4.9-5.1-12.7-0.3-17.8c2-2.2,4.2-4.3,6.4-6.4c2.2-2.1,4.3-4.2,6.5-6.3c-0.1-0.3-0.2-0.6-0.3-0.8c-1,0-1.9,0-2.9,0
	c-17.3,0-70.9,0-88.2,0c-9.1,0-15-6.3-14-14.7c0.7-5.4,5.1-10,10.5-10.8c1.4-0.2,2.9-0.3,4.4-0.3c20.8,0,74.1,0,94.9,0L381.2,231z"
	/>
<g>
	<path class="st1" d="M496,107.6c0-2.8,0-5.6-0.5-8.3c-2.9-18.3-15.6-29.7-33-29.7c-102.6,0-205.1,0-307.7,0l-92.3,0
		c-2.7,0-5.5,0-8.2,0c-6.1,0-12.4,0-18.6,0C21.1,69.8,9.4,79.8,5.1,95.7c-0.2,0.6-0.4,1.2-0.7,1.9c-0.1,0.3-0.2,0.6-0.4,0.9L4,98.7
		v308.8l0.3,0.3c0.1,0.1,0.2,0.2,0.3,0.3c0,0,0.1,0.1,0.1,0.1c5.7,19.7,15.9,28.1,34,28.1l11.4,0c65.6,0,131.2,0,196.8,0
		c71.7,0,143.5,0,215.2,0c20.6,0,33.9-14.9,33.9-38.1C496,301.4,496,204.5,496,107.6z M479.2,108.9c0,96,0,192,0,288
		c0,14.6-5.2,20.6-17.9,20.6c-140.9,0-281.7,0-422.6,0c-12.7,0-17.9-6-17.9-20.6c0-96,0-192,0-288c0-14.6,5.2-20.6,17.9-20.6
		l158.8,0l108.4,0c51.8,0,103.5,0,155.3,0C474,88.3,479.2,94.3,479.2,108.9z"/>
	<path class="st1" d="M253.4,287.1c0-1.5,0-3-0.3-4.6c-0.9-3.9-3.6-6.1-7.6-6.3c-4.1-0.2-7.1,1.8-8.2,5.5c-0.6,2-0.7,4.1-0.7,6.5
		c0,17.7,0,35.3,0,53l0,19.2c-1.5-0.2-3,0-4.3,0.1c-3.2,0.3-5.5,0.4-7.5-2.5c-6.3-9-12.6-18-18.9-27c-8.7-12.4-17.7-25.3-26.5-38
		c-0.8-1.2-1.2-3.5-0.7-4.9c4.6-14.4,9.6-29,14.3-43.2l2.7-8c0.1-0.3,0.2-0.6,0.4-0.9c0.5,1,1,2,1.5,3c1.8,3.6,3.5,7,5.3,10.4
		c4.3,7.9,10.8,12.2,19.4,12.6c7.7,0.4,15.2,0.3,21.6,0.2c6-0.1,9.5-3.2,9.5-8.5c0-5.2-3.5-8.2-9.6-8.3c-5.9-0.1-12-0.1-18.2,0
		c-4.2,0.1-7-1.7-8.7-5.4c-1.1-2.5-2.4-5-3.7-7.5c-0.6-1.2-1.3-2.5-1.9-3.7c-4.6-9.3-12.2-14.1-22.5-14.2c-13.1-0.1-30.3-0.1-47.8,0
		c-11,0.1-18.7,5.3-23,15.6c-3.7,8.8-7.1,17.6-10.7,26.6c-2.1,5.4-0.5,10.3,4,12.2c2.1,0.9,4.3,1,6.2,0.2c2.3-1,4.2-3.1,5.5-6.1
		c2.6-6.4,5.2-12.9,7.7-19.2l1.5-3.9c3.3-8.4,7.7-10.6,16.5-8.1c-0.8,2.4-1.6,4.9-2.3,7.3c-1.9,6.1-3.9,12.5-6.3,18.5
		c-9.1,22.6-12.7,44.6-11,67.3c0.1,1.2,0.1,2.3,0,3.7c0,0.3,0,0.6,0,0.9h-4.6c-3.7,0-7.5,0-11.3,0c-9.3,0-18.9,0-28.4,0
		c-5.5,0-9.2,3.3-9.3,8.2c0,2.3,0.8,4.3,2.3,5.9c1.7,1.7,4.1,2.6,6.8,2.7c14.8,0.1,30.1,0.2,45.4,0c9.4-0.2,15.8-6.9,15.9-16.8
		c0.1-5.8,0-11.7,0-17.4c0-2.5,0-5,0-7.5l0-4.2c1.3,0,2.5,0,3.7,0c3.7,0,7.1,0.1,10.6-0.1c2.7-0.1,4.2,0.7,5.9,3.1
		c9,13,18.2,26.1,27.1,38.9c3.6,5.2,7.3,10.4,10.9,15.6c0.5,0.7,0.9,1.4,1.4,2.3h-22.9c-31.5,0-62.9,0-94.4,0c-0.4,0-0.7,0-1.1,0
		c-1.2,0-2.5,0-3.8,0.1c-4.7,0.4-7.6,3.3-7.9,7.9c-0.2,4.3,2.2,7.4,6.6,8.5c1.5,0.4,3,0.4,4.5,0.3l0.5,0c31.2,0,62.3,0,93.5,0
		c20.3,0,40.6,0,60.9,0c9,0,11.6-2.6,11.6-11.8c0-26,0-51.9,0-77.9V287.1z M150.6,280.5c1-3.1,2-6,2.9-8.9c1.2-3.5,2.3-7,3.5-10.4
		c2.9-8.7,6-17.8,8.8-26.7c0.8-2.5,1.7-3.1,4.1-2.9c2.4,0.2,4.9,0.1,7.5,0.1c0.7,0,1.4,0,2.2,0c0,0.1,0,0.1,0,0.2
		c-0.3,1.1-0.5,2-0.8,2.9c-1.5,4.5-3,9.1-4.5,13.6c-3.5,10.5-7.2,21.4-10.6,32.1c-1,3-2,3.7-4.7,3.5c-1.3-0.1-2.6-0.2-4-0.2
		c-1,0-2.1,0-3.2,0c-0.7,0-1.4,0-2.1,0L150.6,280.5z"/>
	<path class="st1" d="M83.8,315.9c0.2,0,0.5,0,0.7,0c4.7-0.4,7.5-3.2,7.9-7.9c0.1-1.2,0.1-2.4,0.1-3.6c0-0.4,0-0.8,0-1.3l0-155.5
		h144.1l0,18.7c0,17.8,0,35.5,0,53.3c0,1.9,0,4,0.6,6c1.1,4,4.2,6.1,8.5,5.8c4-0.3,6.7-2.6,7.5-6.5c0.3-1.5,0.3-3.1,0.3-4.6v-0.4
		c0-26,0-51.9,0-77.9c0-9-2.6-11.6-11.7-11.6c-51.5,0-102.9,0-154.4,0c-8.9,0-11.7,2.7-11.7,11.8c0,54,0,108,0,162c0,0.3,0,0.6,0,1
		c0,1,0,2,0.1,3C76.3,312.7,79.7,315.9,83.8,315.9z"/>
	<path class="st1" d="M160,185.1c0.1,13,10.8,23.4,23.8,23.4c0.1,0,0.1,0,0.2,0c13.2-0.1,23.5-10.6,23.4-23.9
		c0-6.4-2.6-12.4-7.2-16.9c-4.5-4.4-10.5-6.8-16.7-6.7C170.6,161.3,159.8,172.3,160,185.1z M183.8,178c1.8,0,3.5,0.7,4.7,2
		c1.3,1.3,2,3.1,2,5c0,3.8-2.8,6.6-6.6,6.7c-1.9,0.1-3.7-0.6-5-1.9c-1.3-1.3-2-2.9-2.1-4.7c0-1.7,0.7-3.5,2-4.9
		C180.2,178.8,182,178,183.8,178C183.8,178,183.8,178,183.8,178z"/>
</g>
</svg>
